<svg xmlns="http://www.w3.org/2000/svg" viewBox="0 0 60.29 33.23"><g id="Layer_2" data-name="Layer 2"><g id="Layer_1-2" data-name="Layer 1"><path d="M4.52,10.76v0A4.32,4.32,0,0,1,6.6,4.92a4.6,4.6,0,0,1,3.23-.44.25.25,0,0,1,.18.31L9.69,6.07a.25.25,0,0,1-.3.18,3,3,0,0,0-2.1.24,2.51,2.51,0,0,0-1,3.4v0a2.52,2.52,0,0,0,3.44,1.3A3,3,0,0,0,11,10.13a.25.25,0,0,0,0-.25l-.45-1-1.45.7a.26.26,0,0,1-.34-.12l-.47-1a.24.24,0,0,1,.12-.33l2.83-1.36a.26.26,0,0,1,.34.12l1.41,3a.24.24,0,0,1,0,.22,5.41,5.41,0,0,1-2.61,2.64A4.2,4.2,0,0,1,4.52,10.76Z"/><path d="M14.94,9.79a.25.25,0,0,1-.12-.34l1.59-3.22a3.35,3.35,0,0,1,1.85-1.81,2.65,2.65,0,0,1,2,.2h0a2.58,2.58,0,0,1,1.55,2.46.25.25,0,0,0,.29.26L25,7a.25.25,0,0,1,.26.36L24.56,8.7a.25.25,0,0,1-.2.14l-2.94.39a.25.25,0,0,0-.19.14l-.47,1a.26.26,0,0,0,.11.34l2,1A.26.26,0,0,1,23,12l-.6,1.21a.26.26,0,0,1-.34.11ZM20,8.15a1.23,1.23,0,0,0-.43-1.8h0c-.71-.35-1.32,0-1.71.77l-.7,1.42a.25.25,0,0,0,.11.34L19,9.71a.25.25,0,0,0,.34-.11Z"/><path d="M27.4,11.26h1.37a.25.25,0,0,1,.23.15l3.38,8a.25.25,0,0,1-.23.35H30.77a.26.26,0,0,1-.23-.16L29.9,18a.25.25,0,0,0-.23-.16H26.45a.25.25,0,0,0-.23.16l-.64,1.57a.26.26,0,0,1-.23.16H24a.25.25,0,0,1-.23-.35l3.39-8A.25.25,0,0,1,27.4,11.26ZM29,15.85l-.74-1.8a.25.25,0,0,0-.46,0l-.74,1.8a.25.25,0,0,0,.23.35H28.8A.25.25,0,0,0,29,15.85Z"/><path d="M36.47,9.4l1.18-.6a.24.24,0,0,1,.22,0L43,11.22a.25.25,0,0,0,.33-.34L41.37,7.17a.26.26,0,0,1,.11-.34l1.18-.6a.25.25,0,0,1,.34.11l3.6,7a.26.26,0,0,1-.11.34l-1.06.54a.27.27,0,0,1-.23,0l-5.27-2.52a.25.25,0,0,0-.33.34l2,3.86a.24.24,0,0,1-.11.34l-1.17.6a.24.24,0,0,1-.34-.11l-3.6-7A.25.25,0,0,1,36.47,9.4Z"/><path d="M54.12,2.76,53,1.05A.26.26,0,0,1,53.06.7l1-.66a.25.25,0,0,1,.34.07L58,5.5a.24.24,0,0,1-.07.35l-1,.66a.24.24,0,0,1-.35-.07L55.41,4.73a.26.26,0,0,0-.35-.08L49.89,8.06A.26.26,0,0,1,49.54,8L48.8,6.86a.26.26,0,0,1,.08-.35l5.17-3.4A.26.26,0,0,0,54.12,2.76Z"/><path d="M2.61,20.31l-2,.54a.26.26,0,0,1-.31-.18L0,19.51a.25.25,0,0,1,.18-.31l6.23-1.68a.27.27,0,0,1,.31.18L7,18.86a.27.27,0,0,1-.18.31l-2,.53A.26.26,0,0,0,4.7,20l1.61,6a.25.25,0,0,1-.18.31l-1.3.34a.24.24,0,0,1-.3-.17l-1.61-6A.27.27,0,0,0,2.61,20.31Z"/><path d="M17.18,17.9l.53,1.24a.25.25,0,0,1-.13.33L15,20.59a.26.26,0,0,0-.13.33L16,23.58a.24.24,0,0,0,.33.13l2.58-1.12a.25.25,0,0,1,.33.14L19.8,24a.26.26,0,0,1-.13.33l-7.25,3.13a.25.25,0,0,1-.33-.13l-.53-1.23a.24.24,0,0,1,.13-.33l2.63-1.14a.25.25,0,0,0,.13-.33L13.3,21.59a.26.26,0,0,0-.33-.13L10.34,22.6a.24.24,0,0,1-.33-.13l-.54-1.23a.26.26,0,0,1,.13-.33l7.25-3.14A.26.26,0,0,1,17.18,17.9Z"/><path d="M21.09,28.91v0a4.34,4.34,0,0,1,4.47-4.34A4.29,4.29,0,0,1,30,28.86v0a4.34,4.34,0,0,1-4.47,4.34A4.3,4.3,0,0,1,21.09,28.91Zm7,0v0a2.55,2.55,0,0,0-2.54-2.64A2.51,2.51,0,0,0,23,28.86v0a2.55,2.55,0,0,0,2.54,2.64A2.51,2.51,0,0,0,28.08,28.91Z"/><path d="M39.15,20.9l1,1.28a.26.26,0,0,1,0,.24l-1.29,3.4a.25.25,0,0,0,.26.34l3.62-.35a.24.24,0,0,1,.22.1l1,1.27a.24.24,0,0,1,0,.35l-6.27,4.79a.27.27,0,0,1-.36,0l-.8-1.06a.24.24,0,0,1,0-.35L40,28.2a.25.25,0,0,0-.17-.45L36.37,28l0,0,1.13-3.22a.25.25,0,0,0-.39-.29l-3.46,2.64a.26.26,0,0,1-.36,0l-.79-1a.25.25,0,0,1,.05-.35l6.28-4.78A.24.24,0,0,1,39.15,20.9Z"/><path d="M46.74,23.66l1.16-.73a.24.24,0,0,1,.28,0l7.11,4.92a.25.25,0,0,1,0,.42L54.11,29a.26.26,0,0,1-.28,0l-1.38-1a.26.26,0,0,0-.28,0l-2.71,1.72a.25.25,0,0,0-.12.26l.3,1.67a.24.24,0,0,1-.11.25l-1.13.71a.25.25,0,0,1-.38-.17l-1.39-8.53A.24.24,0,0,1,46.74,23.66Zm3.84,3L49,25.54a.25.25,0,0,0-.4.25l.34,1.92a.26.26,0,0,0,.39.17l1.25-.79A.25.25,0,0,0,50.58,26.67Z"/><path d="M52.61,19.88l1-.64a.25.25,0,0,1,.34.07,3.68,3.68,0,0,0,1.94,1.54c.72.23,1.24.08,1.39-.39v0c.14-.44-.06-.76-1.28-1.53-1.48-.93-2.38-1.71-1.87-3.3v0c.46-1.45,1.94-2,3.57-1.51a4.87,4.87,0,0,1,2.5,1.77.25.25,0,0,1-.05.35l-.95.73a.26.26,0,0,1-.35,0,3.78,3.78,0,0,0-1.67-1.27c-.68-.21-1.13,0-1.25.37v0c-.17.53.12.81,1.39,1.61,1.48.94,2.21,1.82,1.76,3.21v0c-.5,1.59-2,2.09-3.73,1.54a5.34,5.34,0,0,1-2.84-2.15A.26.26,0,0,1,52.61,19.88Z"/></g></g></svg>